<?xml version="1.0" encoding="UTF-8"?>
<svg id="Layer_2" data-name="Layer 2" xmlns="http://www.w3.org/2000/svg" xmlns:xlink="http://www.w3.org/1999/xlink" viewBox="0 0 271 219">
  <defs>
    <style>
      .cls-1, .cls-2, .cls-3, .cls-4, .cls-5 {
        fill: none;
      }

      .cls-6 {
        clip-path: url(#clippath);
      }

      .cls-7 {
        stroke-width: 1.21px;
      }

      .cls-7, .cls-8 {
        fill: #037c73;
      }

      .cls-7, .cls-9, .cls-2, .cls-3, .cls-4, .cls-5 {
        stroke-miterlimit: 10;
      }

      .cls-7, .cls-3 {
        stroke: #012d28;
      }

      .cls-10 {
        fill: #03211d;
      }

      .cls-11 {
        fill: #006860;
      }

      .cls-12 {
        fill: #012d28;
      }

      .cls-13 {
        fill: #01443d;
      }

      .cls-14, .cls-15 {
        fill: #fff;
      }

      .cls-16 {
        fill: #96a2a3;
      }

      .cls-17 {
        fill: #125149;
      }

      .cls-9 {
        fill: #28a394;
        stroke: #01443d;
      }

      .cls-9, .cls-2 {
        stroke-width: .81px;
      }

      .cls-2, .cls-4 {
        opacity: .17;
        stroke: #e8e8e8;
      }

      .cls-3 {
        stroke-width: 2.71px;
      }

      .cls-4 {
        stroke-width: .61px;
      }

      .cls-15 {
        opacity: .77;
      }

      .cls-5 {
        stroke: #fff;
        stroke-width: 2.46px;
      }
    </style>
    <clipPath id="clippath">
      <rect class="cls-1" width="271" height="219"/>
    </clipPath>
  </defs>
  <g id="Layer_1-2" data-name="Layer 1">
    <g class="cls-6">
      <rect class="cls-16" x="-750.11" y="169.23" width="1019.11" height="46.21" rx="10.03" ry="10.03"/>
      <rect class="cls-5" x="-56.89" y="22.41" width="98.28" height="54.84"/>
      <path class="cls-1" d="M105.42,169.51c-.5-1.15-.94-2.33-1.33-3.53h0c.38,1.21,.83,2.38,1.33,3.53Z"/>
      <path class="cls-1" d="M105.83,170.42c.65,1.4,1.39,2.75,2.21,4.04-.81-1.3-1.55-2.65-2.21-4.04Z"/>
      <path class="cls-1" d="M77.99,178.1c.23,.33,.47,.65,.72,.96-.25-.32-.49-.64-.72-.96Z"/>
      <path class="cls-1" d="M77.11,176.82c.2,.3,.4,.6,.61,.9-.21-.3-.41-.6-.61-.9Z"/>
      <path class="cls-1" d="M139.73,192c-10.33,0-19.69-4.19-26.46-10.96,6.77,6.77,16.13,10.96,26.46,10.96,16.69,0,30.83-10.93,35.65-26.02h0c-4.82,15.09-18.96,26.02-35.65,26.02Z"/>
      <path class="cls-1" d="M78.92,179.34c.62,.78,1.28,1.54,1.96,2.26-.69-.72-1.34-1.48-1.96-2.26Z"/>
      <path class="cls-11" d="M-174.59,111.5c.24-3.17,.62-6.74,1.24-10.61,1.72-10.81,2.61-16.75,7.04-21.08,3.68-3.59,9.61-4.88,20.39-6.36,43.48-5.98,56.21-3.46,69.56-9.7,6.58-3.08,11.64-6.76,15.23-9.8C-45.01,41.03-28.89,28.12-12.77,15.21c3.49-2.19,8.21-4.67,14.09-6.56,7.73-2.5,14.57-3.05,19.41-3.06,76.08-.59,131.78-.44,150.69-.59,3.98-.03,13.56-.05,21.74,6.05,5.41,4.04,9.28,10.15,11.79,18.49,3.49,11.62,8.2,22.87,12.36,34.29,1.65,15.72,3.29,31.44,4.94,47.15,.11,1.1,.23,2.2,.35,3.29,10.52,13.56,7.66,27.84,.95,40.94-1.31,2.55-2.61,4.1-4.71,5.83-3.58,2.94-7.15,3.56-16.18,4.92h-15.62c.89-3.71,1.35-7.52,1.35-11.4,0-6.56-1.29-12.93-3.83-18.94-2.45-5.79-5.96-11-10.42-15.46-4.46-4.46-9.67-7.97-15.46-10.42-6-2.54-12.38-3.83-18.94-3.83-6.56,0-12.93,1.29-18.94,3.83-5.79,2.45-11,5.96-15.46,10.42-4.46,4.46-7.97,9.67-10.42,15.46-2.54,6-3.83,12.38-3.83,18.94,0,3.88,.45,7.69,1.35,11.4H-55.99c.89-3.71,1.35-7.52,1.35-11.4,0-6.56-1.29-12.93-3.83-18.94-2.45-5.79-5.96-11-10.42-15.46-4.46-4.46-9.67-7.97-15.46-10.42-6-2.54-12.38-3.83-18.94-3.83s-12.93,1.29-18.94,3.83c-5.79,2.45-11,5.96-15.46,10.42-4.46,4.46-7.97,9.67-10.42,15.46-2.54,6-3.83,12.38-3.83,18.94,0,3.82,.44,7.58,1.31,11.24-.62,0-1.25,0-1.87-.01-.27,.07-.53,.12-.79,.17h-8.82c-.27,0-.54-.01-.81-.02-11.69-.43-21.04-10.03-21.04-21.83v-14.7c0-7.42,3.71-13.98,9.37-17.93Z"/>
      <path d="M104.09,165.98c-1.15-3.59-1.77-7.42-1.77-11.4h0c0,3.97,.62,7.8,1.77,11.4h0Z"/>
      <path d="M174.46,140.62c-.16-.4-.33-.79-.5-1.18,.17,.39,.34,.78,.5,1.18Z"/>
      <path d="M173.67,138.8c-.58-1.24-1.22-2.45-1.93-3.62,.71,1.17,1.35,2.37,1.93,3.62Z"/>
      <path class="cls-14" d="M76.8,176.34c.1,.16,.21,.33,.31,.49-.11-.16-.21-.32-.31-.49Z"/>
      <path class="cls-14" d="M105.42,169.51c.13,.3,.27,.61,.41,.91-.14-.3-.28-.6-.41-.91Z"/>
      <path class="cls-14" d="M80.89,181.6c.2,.21,.4,.41,.6,.61-.2-.2-.4-.41-.6-.61Z"/>
      <path class="cls-14" d="M78.71,179.07c.07,.09,.14,.18,.21,.27-.07-.09-.14-.18-.21-.27Z"/>
      <path class="cls-14" d="M77.72,177.73c.09,.13,.18,.25,.27,.38-.09-.13-.18-.25-.27-.38Z"/>
      <path class="cls-14" d="M169.72,132.19c-.36-.48-.73-.95-1.11-1.41,.38,.46,.75,.93,1.11,1.41Z"/>
      <path class="cls-14" d="M171.74,135.18c-.47-.77-.96-1.52-1.49-2.26,.52,.73,1.02,1.49,1.49,2.26Z"/>
      <path class="cls-14" d="M168.61,130.78c-.38-.46-.77-.91-1.18-1.36,.4,.44,.79,.9,1.18,1.36Z"/>
      <path class="cls-14" d="M120.33,122.58c-1.54,.94-3.01,1.98-4.4,3.13,1.39-1.14,2.86-2.19,4.4-3.13Z"/>
      <path class="cls-14" d="M174.65,141.1c-.06-.16-.13-.32-.19-.48,.06,.16,.13,.32,.19,.48Z"/>
      <path class="cls-14" d="M112.04,129.42c-.4,.44-.79,.9-1.18,1.36,.38-.46,.77-.91,1.18-1.36Z"/>
      <path class="cls-14" d="M173.96,139.44c-.09-.21-.19-.43-.29-.64,.1,.21,.2,.42,.29,.64Z"/>
      <path class="cls-14" d="M105.26,140.02c-.24,.56-.46,1.13-.67,1.7,.21-.57,.43-1.14,.67-1.7Z"/>
      <path class="cls-14" d="M102.32,154.58c0-3.55,.49-6.99,1.42-10.24-.92,3.26-1.42,6.69-1.42,10.24h0Z"/>
      <path class="cls-14" d="M112.04,129.42c1.21-1.33,2.51-2.57,3.9-3.71-1.39,1.14-2.69,2.39-3.9,3.71Z"/>
      <path class="cls-14" d="M104.59,141.72c-.31,.86-.6,1.73-.85,2.62,.25-.89,.54-1.76,.85-2.62Z"/>
      <path class="cls-14" d="M139.73,117.16c-7.1,0-13.75,1.98-19.4,5.42,5.66-3.44,12.3-5.42,19.4-5.42,10.98,0,20.85,4.73,27.7,12.26-6.84-7.53-16.72-12.26-27.7-12.26Z"/>
      <path class="cls-14" d="M106.41,137.55c-.41,.81-.8,1.63-1.15,2.47,.36-.84,.74-1.66,1.15-2.47Z"/>
      <path class="cls-14" d="M109.75,132.19c-.72,.96-1.39,1.96-2.02,2.99,.63-1.03,1.3-2.02,2.02-2.99Z"/>
      <path class="cls-14" d="M110.86,130.78c-.38,.46-.75,.93-1.11,1.41,.36-.48,.73-.95,1.11-1.41Z"/>
      <path class="cls-14" d="M107.27,135.96c-.3,.52-.59,1.05-.86,1.59,.28-.54,.56-1.07,.86-1.59Z"/>
      <rect class="cls-13" x="215.2" y="39.08" width="34.7" height="76.88" rx="9.77" ry="9.77"/>
      <path class="cls-15" d="M-47.26,73.16c38.9,0,77.81,0,116.71-.01,.51-.16,1.6-.59,2.52-1.65,1.24-1.43,1.35-3.05,1.36-3.54-.18-16.89-.35-33.78-.53-50.67,0-.66-.33-2.15-1.48-3.25-1.2-1.14-2.81-1.29-3.6-1.34-3.29-.19-19.94-.19-42.71,.11-4.9-.11-13.11,.34-22.37,4.03-8.13,3.24-13.87,7.71-17.32,10.85-17.49,14.84-30.14,25.78-31.75,27.4-1.14,1.14-1.89,2.47-1.89,2.47-.58,1.02-.9,1.97-1.1,2.69-.27,2.93-.54,5.86-.82,8.79-.02,.26-.14,1.83,1.03,3.05,.73,.76,1.58,1,1.95,1.08Z"/>
      <path class="cls-15" d="M194.43,73.47c-32.99,0-65.98,0-98.98,0-.33-.02-1.75-.13-2.91-1.3-1.11-1.13-1.23-2.47-1.25-2.81-.18-17.59-.36-35.18-.54-52.77-.03-.36-.07-1.52,.7-2.59,1.2-1.67,3.29-1.63,3.47-1.62,26.39,.09,52.78,.18,79.17,.27,1.41,.33,4.49,1.26,7.23,3.98,1.93,1.91,2.92,3.93,3.41,5.19,4.56,15.44,9.12,30.87,13.68,46.31,.66,1.28,.52,2.83-.36,3.96-.85,1.1-2.26,1.64-3.63,1.38Z"/>
      <path class="cls-14" d="M76.01,157.84H-40.78c-2.26,0-4.1-1.84-4.1-4.1h0c0-2.26,1.84-4.1,4.1-4.1H76.01c2.26,0,4.1,1.84,4.1,4.1h0c0,2.26-1.84,4.1-4.1,4.1Z"/>
      <circle class="cls-13" cx="139.05" cy="153.37" r="37.51"/>
      <circle class="cls-17" cx="139.05" cy="153.37" r="22.96"/>
      <rect class="cls-12" x="156.97" y="82.68" width="31.75" height="21.71" rx="8.42" ry="8.42"/>
      <path class="cls-7" d="M155.04,85.68l.02,13.71c0,3.31-2.99,5.7-6.04,4.81l-10.47-3.02c-1.97-.57-3.39-2.38-3.53-4.52l-1-14.77c-.24-3.57,3.06-6.23,6.3-5.08l11.45,4.09c1.95,.7,3.27,2.62,3.27,4.78Z"/>
      <path class="cls-4" d="M153.57,86.36v11.72c.02,2.83-2.55,4.87-5.15,4.12l-8.95-2.59c-1.69-.49-2.9-2.04-3.02-3.86l-.85-12.63c-.21-3.06,2.62-5.33,5.39-4.34l9.79,3.49c1.67,.6,2.8,2.24,2.8,4.09Z"/>
      <rect class="cls-12" x="153.52" y="90.73" width="3.5" height="10.74" rx="1.75" ry="1.75" transform="translate(15.5 213.61) rotate(-71.81)"/>
      <rect class="cls-12" x="153.52" y="82.33" width="3.5" height="10.74" rx="1.75" ry="1.75" transform="translate(23.48 207.83) rotate(-71.81)"/>
      <ellipse class="cls-17" cx="56.74" cy="83.38" rx="10.08" ry="3.36"/>
      <circle class="cls-10" cx="173.26" cy="94.22" r="5.74"/>
      <path class="cls-3" d="M196.67,97.94c6.39,4.79,9.6,9.23,16.24,17.3,4.35,5.29,10.03,9.12,15.64,13.05,31.58,22.05,70.77,14.45,81.03,33.86"/>
      <g>
        <path class="cls-8" d="M175.92,90.73s1.08,4.64,2.15,5.1,5.71-4.08,6.45-3.62,10.95,8.27,10.95,8.27c0,0,3.21-2.65,3.81-4.52s-11.9-8.98-13-9.17-7.84,1.84-10.36,3.94Z"/>
        <path class="cls-9" d="M175.8,90.71s-2.87,.11-3.15,1.71,2.23,6.16,3.06,5.75,2.63-2.3,2.63-2.3l-2.54-5.17Z"/>
        <path class="cls-9" d="M185.1,94.44s3.42,3.98,4.99,3.7c.81-.15,1.28-.69,1.55-1.19,.26-.47,.11-1.06-.32-1.37-1.84-1.33-6.96-4.84-7.15-3.77-.24,1.4,.92,2.63,.92,2.63Z"/>
        <path class="cls-2" d="M176.02,91.22c2.18-1.8,9.12-4.72,10.58-3.95,2.6,1.35,12.22,6.83,12.3,8.45"/>
      </g>
    </g>
  </g>
</svg>