<?xml version="1.0" encoding="UTF-8"?>
<svg id="Layer_2" data-name="Layer 2" xmlns="http://www.w3.org/2000/svg" viewBox="0 0 1019.11 615.26">
  <defs>
    <style>
      .cls-1, .cls-2 {
        fill: none;
      }

      .cls-3 {
        fill: #006860;
      }

      .cls-4 {
        fill: #01443d;
      }

      .cls-5 {
        fill: #f0f2f4;
      }

      .cls-6 {
        fill: #e6e7e9;
      }

      .cls-7 {
        fill: #fff;
      }

      .cls-8 {
        fill: #7f7f7f;
      }

      .cls-9 {
        fill: #96a2a3;
      }

      .cls-10 {
        fill: #c2ccce;
      }

      .cls-11 {
        fill: #b2b2b2;
      }

      .cls-12 {
        fill: #aab1b2;
      }

      .cls-2 {
        stroke: #fff;
        stroke-miterlimit: 10;
        stroke-width: 5.85px;
      }
    </style>
  </defs>
  <g id="Layer_1-2" data-name="Layer 1">
    <rect class="cls-6" x="129.46" y="108.91" width="56.97" height="135.22"/>
    <rect class="cls-12" x="107.94" y="77.26" width="100.01" height="50.01" rx="7.44" ry="7.44"/>
    <polygon class="cls-6" points="333.55 29.04 115.64 304.6 115.64 568.77 333.55 568.77 551.47 568.77 551.47 304.6 333.55 29.04"/>
    <circle class="cls-12" cx="333.55" cy="244.13" r="61.8" transform="translate(-74.93 307.36) rotate(-45)"/>
    <path class="cls-7" d="M333.55,188.66c30.58,0,55.47,24.88,55.47,55.47s-24.88,55.47-55.47,55.47-55.47-24.88-55.47-55.47,24.88-55.47,55.47-55.47m0-6.33c-34.13,0-61.8,27.67-61.8,61.8s27.67,61.8,61.8,61.8,61.8-27.67,61.8-61.8-27.67-61.8-61.8-61.8h0Z"/>
    <g>
      <rect class="cls-11" x="329.86" y="183.04" width="7.38" height="122.17"/>
      <polygon class="cls-7" points="337.25 183.04 329.86 183.04 329.86 305.21 337.25 305.21 337.25 183.04 337.25 183.04"/>
    </g>
    <g>
      <rect class="cls-11" x="329.86" y="183.04" width="7.38" height="122.17" transform="translate(577.68 -89.43) rotate(90)"/>
      <polygon class="cls-7" points="394.64 240.43 272.47 240.43 272.47 247.82 394.64 247.82 394.64 240.43 394.64 240.43"/>
    </g>
    <rect class="cls-12" x="338.06" y="355.06" width="161.2" height="128.29" rx="12.13" ry="12.13"/>
    <g>
      <rect class="cls-11" x="413.97" y="354.12" width="7.38" height="122.17"/>
      <polygon class="cls-7" points="421.35 354.12 413.97 354.12 413.97 476.28 421.35 476.28 421.35 354.12 421.35 354.12"/>
    </g>
    <g>
      <rect class="cls-11" x="413.97" y="338.53" width="7.38" height="153.34" transform="translate(832.86 -2.46) rotate(90)"/>
      <polygon class="cls-7" points="494.33 411.51 340.99 411.51 340.99 418.89 494.33 418.89 494.33 411.51 494.33 411.51"/>
    </g>
    <path class="cls-12" d="M294.38,368.11H158.67c-5.64,0-10.22-4.57-10.22-10.22h0c0-5.64,4.57-10.22,10.22-10.22h135.71c5.64,0,10.22,4.57,10.22,10.22h0c0,5.64-4.57,10.22-10.22,10.22Z"/>
    <rect class="cls-5" x="174.94" y="368.11" width="103.18" height="180.72"/>
    <circle class="cls-8" cx="261.08" cy="463.27" r="8.76" transform="translate(-32.11 19.63) rotate(-4.06)"/>
    <path class="cls-12" d="M606.4,302.86c2.17-2.17,2.17-5.68,0-7.84L333.58,22.2l-.03,.03-.03-.03L60.71,295.02c-2.17,2.17-2.17,5.68,0,7.84l30.95,30.95c2.17,2.17,5.68,2.17,7.84,0L329.63,103.68c2.17-2.17,5.68-2.17,7.84,0l230.13,230.13c2.17,2.17,5.68,2.17,7.84,0l30.95-30.95Z"/>
    <rect class="cls-9" y="569.05" width="1019.11" height="46.21" rx="10.03" ry="10.03"/>
    <path class="cls-6" d="M935.11,187.82c2.43-3.52,3.73-7.23,3.73-11.06,0-22.29-43.86-40.36-97.97-40.36-3.96,0-7.87,.1-11.71,.29-9.09-15.35-32.61-26.28-60.19-26.28-35.46,0-64.21,18.07-64.21,40.36,0,2.76,.44,5.45,1.28,8.05-34.25,1.45-60.96,13.36-60.96,27.85,0,.39,.03,.77,.07,1.15h289.97Z"/>
    <path class="cls-6" d="M428.36,39.82c-1.25-1.81-1.92-3.72-1.92-5.69,0-11.47,22.56-20.76,50.39-20.76,2.04,0,4.05,.05,6.02,.15,4.68-7.89,16.77-13.52,30.96-13.52,18.24,0,33.03,9.29,33.03,20.76,0,1.42-.23,2.8-.66,4.14,17.61,.74,31.35,6.87,31.35,14.33,0,.2-.02,.39-.04,.59h-149.14Z"/>
    <path class="cls-10" d="M928.5,448.51c1.93,0,1.93-3,0-3s-1.93,3,0,3h0Z"/>
    <g>
      <path class="cls-1" d="M693.5,563.47h0c-4.55,14.24-17.89,24.55-33.63,24.55-6.06,0-11.76-1.53-16.75-4.22,4.98,2.69,10.69,4.22,16.75,4.22,15.75,0,29.08-10.31,33.63-24.55Z"/>
      <path class="cls-1" d="M641.13,582.64c.57,.36,1.16,.71,1.76,1.03-.6-.33-1.18-.67-1.76-1.03Z"/>
      <path class="cls-1" d="M637.29,579.86c.09,.08,.18,.15,.28,.23-.09-.08-.19-.15-.28-.23Z"/>
      <path class="cls-1" d="M638.54,580.85c.39,.3,.79,.59,1.2,.87-.41-.28-.81-.57-1.2-.87Z"/>
      <path class="cls-1" d="M636.09,578.81s.08,.08,.13,.11c-.04-.04-.08-.08-.13-.11Z"/>
      <path class="cls-1" d="M856.78,566.8c-.47-1.08-.89-2.2-1.25-3.33h0c.36,1.14,.78,2.25,1.25,3.33Z"/>
      <path class="cls-1" d="M857.17,567.66c.62,1.32,1.31,2.59,2.08,3.81-.77-1.22-1.46-2.5-2.08-3.81Z"/>
      <path class="cls-1" d="M860.51,573.34c.25,.34,.5,.68,.76,1.02-.26-.33-.51-.67-.76-1.02Z"/>
      <path class="cls-1" d="M859.58,571.99c.21,.32,.42,.64,.64,.95-.22-.31-.43-.63-.64-.95Z"/>
      <path class="cls-1" d="M889.16,588.02c-9.75,0-18.57-3.95-24.96-10.34,6.39,6.39,15.21,10.34,24.96,10.34,15.75,0,29.08-10.31,33.63-24.55h0c-4.55,14.24-17.89,24.55-33.63,24.55Z"/>
      <path class="cls-1" d="M861.49,574.64c.66,.83,1.35,1.63,2.08,2.39-.73-.76-1.42-1.56-2.08-2.39Z"/>
      <path d="M612.7,563.47c-4.09,.88-7.03,.59-9.09-.02,.25,0,.51,.02,.76,.02h8.33Z"/>
      <path d="M615.2,563.32c.01,.05,.02,.1,.04,.15h-2.54c.25-.05,.49-.1,.74-.16,.59,0,1.17,0,1.76,.01Z"/>
      <path class="cls-3" d="M592.6,512.07c.22-2.99,.58-6.36,1.17-10.01,1.63-10.2,2.46-15.8,6.64-19.88,3.47-3.39,9.07-4.61,19.23-6.01,41.03-5.64,53.03-3.27,65.63-9.15,6.21-2.9,10.98-6.38,14.37-9.25,15.21-12.18,30.43-24.36,45.64-36.54,3.3-2.06,7.75-4.4,13.29-6.19,7.29-2.36,13.74-2.88,18.31-2.88,71.78-.55,124.34-.41,142.18-.56,3.75-.03,12.79-.05,20.51,5.71,5.1,3.81,8.76,9.57,11.13,17.45,3.3,10.96,7.74,21.58,11.66,32.35,1.55,14.83,3.11,29.66,4.66,44.49,.11,1.04,.22,2.07,.33,3.11,9.93,12.79,7.22,26.27,.89,38.63-1.23,2.41-2.46,3.87-4.45,5.51-3.37,2.78-6.75,3.36-15.26,4.64h-14.74c.84-3.5,1.27-7.09,1.27-10.75,0-6.19-1.22-12.2-3.61-17.87-2.31-5.47-5.62-10.37-9.83-14.59-4.21-4.21-9.12-7.52-14.59-9.83-5.67-2.4-11.68-3.61-17.87-3.61s-12.2,1.22-17.87,3.61c-5.47,2.31-10.37,5.62-14.59,9.83s-7.52,9.12-9.83,14.59c-2.4,5.67-3.61,11.68-3.61,17.87,0,3.66,.43,7.25,1.27,10.75h-140.03c.84-3.5,1.27-7.09,1.27-10.75,0-6.19-1.22-12.2-3.61-17.87-2.31-5.47-5.62-10.37-9.83-14.59-4.21-4.21-9.12-7.52-14.59-9.83-5.67-2.4-11.68-3.61-17.87-3.61s-12.2,1.22-17.87,3.61c-5.47,2.31-10.37,5.62-14.59,9.83s-7.52,9.12-9.83,14.59c-2.4,5.67-3.61,11.68-3.61,17.87,0,3.61,.42,7.15,1.23,10.6-.59,0-1.17,0-1.76-.01-.25,.06-.5,.11-.74,.16h-8.33c-.26,0-.51,0-.76-.02-11.03-.4-19.85-9.47-19.85-20.59v-13.87c0-7.01,3.5-13.19,8.84-16.92Z"/>
      <path d="M855.53,563.47c-1.08-3.39-1.67-7-1.67-10.75h0c0,3.75,.59,7.36,1.67,10.75h0Z"/>
      <path d="M924.47,552.72c0-4.49-.84-8.78-2.36-12.72,1.53,3.95,2.36,8.24,2.36,12.72,0,3.75-.59,7.36-1.67,10.75h0c1.08-3.39,1.67-7,1.67-10.75Z"/>
      <path d="M921.92,539.54c-.15-.37-.31-.75-.47-1.11,.16,.37,.32,.74,.47,1.11Z"/>
      <path d="M687.11,530.26c-.54-.66-1.11-1.3-1.7-1.92,.59,.62,1.16,1.26,1.7,1.92Z"/>
      <path d="M921.18,537.83c-.55-1.17-1.15-2.31-1.82-3.41,.67,1.1,1.28,2.24,1.82,3.41Z"/>
      <path d="M695.17,552.72c0-8.53-3.03-16.35-8.06-22.46,5.04,6.1,8.06,13.93,8.06,22.46,0,3.75-.59,7.36-1.67,10.75h0c1.08-3.39,1.67-7,1.67-10.75Z"/>
      <path d="M626.24,563.47s-.02-.05-.03-.08c4.28,.03,8.57,.05,12.85,.08h-12.82Z"/>
      <path class="cls-7" d="M626.21,563.39s.02,.05,.03,.08h-11c-.01-.05-.02-.1-.04-.15,3.67,.02,7.34,.05,11.01,.07Z"/>
      <path class="cls-7" d="M636.09,578.81c-4.51-4.11-7.95-9.38-9.85-15.34h0c1.9,5.95,5.34,11.22,9.85,15.34Z"/>
      <path class="cls-7" d="M636.21,578.92c.35,.32,.72,.63,1.08,.94-.37-.31-.73-.62-1.08-.94Z"/>
      <path class="cls-7" d="M642.88,583.67c.08,.04,.16,.09,.24,.13-.08-.04-.16-.09-.24-.13Z"/>
      <path class="cls-7" d="M639.74,581.72c.45,.32,.92,.62,1.39,.92-.47-.29-.93-.6-1.39-.92Z"/>
      <path class="cls-7" d="M637.57,580.09c.32,.26,.64,.51,.97,.76-.33-.25-.65-.5-.97-.76Z"/>
      <path class="cls-7" d="M626.24,563.47h0s-.02-.05-.03-.08h0s.02,.05,.03,.08Z"/>
      <path class="cls-7" d="M659.87,517.42c6.7,0,12.97,1.87,18.31,5.11-5.34-3.24-11.6-5.11-18.31-5.11-19.5,0-35.3,15.81-35.3,35.3,0,3.72,.58,7.3,1.64,10.67h0c-1.07-3.37-1.64-6.95-1.64-10.67,0-19.5,15.81-35.3,35.3-35.3Z"/>
      <path class="cls-7" d="M682.33,525.48c1.08,.9,2.11,1.85,3.08,2.87-.97-1.02-2-1.98-3.08-2.87Z"/>
      <path class="cls-7" d="M682.33,525.48c-1.31-1.08-2.69-2.07-4.15-2.95,1.46,.88,2.84,1.87,4.15,2.95Z"/>
      <g>
        <path class="cls-4" d="M624.57,552.72c0-19.5,15.81-35.3,35.3-35.3,6.7,0,12.97,1.87,18.31,5.11,1.46,.88,2.84,1.87,4.15,2.95,1.08,.9,2.11,1.85,3.08,2.87,.59,.62,1.16,1.26,1.7,1.92,5.04,6.1,8.06,13.93,8.06,22.46,0,3.75-.59,7.36-1.67,10.75-4.55,14.24-17.89,24.55-33.63,24.55-6.06,0-11.76-1.53-16.75-4.22-.08-.04-.16-.09-.24-.13-.6-.33-1.18-.67-1.76-1.03-.47-.29-.93-.6-1.39-.92-.41-.28-.81-.57-1.2-.87-.33-.25-.65-.5-.97-.76-.09-.08-.19-.15-.28-.23-.37-.31-.73-.62-1.08-.94-.04-.04-.08-.08-.13-.11-4.51-4.11-7.95-9.38-9.85-15.34,0-.03-.02-.05-.03-.08-1.07-3.37-1.64-6.95-1.64-10.67Z"/>
        <path class="cls-4" d="M856,540.58c.2-.54,.41-1.08,.63-1.6,.33-.79,.7-1.57,1.09-2.33,.26-.51,.53-1.01,.82-1.5,.14-.25,.29-.49,.43-.73,.59-.97,1.22-1.91,1.9-2.82,.34-.45,.69-.9,1.05-1.33,.36-.44,.73-.86,1.11-1.28,1.14-1.25,2.37-2.43,3.68-3.5,1.31-1.08,2.69-2.07,4.15-2.95,5.34-3.24,11.6-5.11,18.31-5.11,10.36,0,19.67,4.46,26.13,11.57,.38,.42,.75,.85,1.11,1.28,.36,.44,.71,.88,1.05,1.33,.17,.23,.34,.46,.5,.69,.49,.69,.96,1.4,1.4,2.13,.67,1.1,1.28,2.24,1.82,3.41,.09,.2,.18,.4,.27,.6,.16,.37,.32,.74,.47,1.11,.06,.15,.12,.3,.18,.45,1.53,3.95,2.36,8.24,2.36,12.72,0,3.75-.59,7.36-1.67,10.75-4.55,14.24-17.89,24.55-33.63,24.55-9.75,0-18.57-3.95-24.96-10.34-.21-.21-.42-.43-.63-.65-.73-.76-1.42-1.56-2.08-2.39-.08-.09-.15-.19-.22-.29-.26-.33-.51-.67-.76-1.02-.1-.13-.19-.27-.28-.4-.22-.31-.43-.63-.64-.95-.11-.17-.22-.34-.33-.51-.77-1.22-1.46-2.5-2.08-3.81-.13-.28-.26-.57-.39-.86-.47-1.08-.89-2.2-1.25-3.33-1.08-3.39-1.67-7-1.67-10.75,0-3.35,.47-6.59,1.34-9.66,.24-.84,.51-1.66,.8-2.47Z"/>
      </g>
      <path class="cls-7" d="M859.25,571.48c.11,.17,.22,.34,.33,.51-.11-.17-.22-.34-.33-.51Z"/>
      <path class="cls-7" d="M856.78,566.8c.13,.29,.25,.57,.39,.86-.13-.28-.26-.57-.39-.86Z"/>
      <path class="cls-7" d="M863.57,577.03c.21,.22,.42,.44,.63,.65-.21-.21-.42-.43-.63-.65Z"/>
      <path class="cls-7" d="M861.27,574.36c.07,.1,.15,.19,.22,.29-.08-.09-.15-.19-.22-.29Z"/>
      <path class="cls-7" d="M860.22,572.94c.09,.13,.19,.27,.28,.4-.1-.13-.19-.27-.28-.4Z"/>
      <path class="cls-7" d="M917.45,531.6c-.34-.45-.69-.9-1.05-1.33,.36,.44,.71,.88,1.05,1.33Z"/>
      <path class="cls-7" d="M919.35,534.41c-.44-.73-.91-1.44-1.4-2.13,.49,.69,.96,1.4,1.4,2.13Z"/>
      <path class="cls-7" d="M916.4,530.26c-.36-.44-.73-.86-1.11-1.28,.38,.42,.75,.85,1.11,1.28Z"/>
      <path class="cls-7" d="M870.86,522.53c-1.46,.88-2.84,1.87-4.15,2.95,1.31-1.08,2.69-2.07,4.15-2.95Z"/>
      <path class="cls-7" d="M922.1,540c-.06-.15-.12-.3-.18-.45,.06,.15,.12,.3,.18,.45Z"/>
      <path class="cls-7" d="M863.03,528.98c-.38,.42-.75,.85-1.11,1.28,.36-.44,.73-.86,1.11-1.28Z"/>
      <path class="cls-7" d="M921.45,538.43c-.09-.2-.18-.4-.27-.6,.09,.2,.18,.4,.27,.6Z"/>
      <path class="cls-7" d="M856.63,538.98c-.22,.53-.43,1.06-.63,1.6,.2-.54,.41-1.08,.63-1.6Z"/>
      <path class="cls-7" d="M853.86,552.72c0-3.35,.47-6.59,1.34-9.66-.87,3.07-1.34,6.31-1.34,9.66h0Z"/>
      <path class="cls-7" d="M863.03,528.98c1.14-1.25,2.37-2.43,3.68-3.5-1.31,1.08-2.54,2.25-3.68,3.5Z"/>
      <path class="cls-7" d="M856,540.58c-.3,.81-.57,1.64-.8,2.47,.24-.84,.51-1.66,.8-2.47Z"/>
      <path class="cls-7" d="M889.16,517.42c-6.7,0-12.97,1.87-18.31,5.11,5.34-3.24,11.6-5.11,18.31-5.11,10.36,0,19.67,4.46,26.13,11.57-6.46-7.11-15.77-11.57-26.13-11.57Z"/>
      <path class="cls-7" d="M857.72,536.65c-.39,.76-.75,1.54-1.09,2.33,.33-.79,.7-1.57,1.09-2.33Z"/>
      <path class="cls-7" d="M860.87,531.6c-.68,.91-1.31,1.85-1.9,2.82,.59-.97,1.22-1.91,1.9-2.82Z"/>
      <path class="cls-7" d="M861.92,530.26c-.36,.44-.71,.88-1.05,1.33,.34-.45,.69-.9,1.05-1.33Z"/>
      <path class="cls-7" d="M858.54,535.15c-.28,.49-.56,.99-.82,1.5,.26-.51,.53-1.01,.82-1.5Z"/>
      <rect class="cls-4" x="960.36" y="443.75" width="32.74" height="72.54" rx="9.22" ry="9.22"/>
      <path class="cls-7" d="M712.73,475.9c36.71,0,73.41,0,110.12-.01,.48-.15,1.51-.56,2.38-1.56,1.17-1.35,1.27-2.88,1.29-3.34-.17-15.94-.33-31.87-.5-47.81,0-.62-.31-2.02-1.4-3.06-1.13-1.08-2.65-1.22-3.4-1.26-3.1-.18-18.81-.17-40.3,.1-4.62-.1-12.37,.32-21.11,3.81-7.67,3.06-13.09,7.27-16.34,10.23-16.51,14-28.44,24.32-29.96,25.85-1.07,1.08-1.78,2.33-1.78,2.33-.54,.96-.85,1.86-1.03,2.54-.26,2.76-.51,5.53-.77,8.29-.02,.24-.13,1.73,.97,2.87,.68,.72,1.49,.94,1.84,1.02Z"/>
      <path class="cls-7" d="M940.77,476.19h-93.38c-.31-.02-1.65-.12-2.74-1.23-1.05-1.06-1.16-2.33-1.18-2.65-.17-16.59-.34-33.19-.51-49.78-.03-.34-.06-1.43,.66-2.44,1.14-1.58,3.11-1.53,3.28-1.53,24.9,.09,49.8,.17,74.7,.26,1.33,.31,4.24,1.19,6.82,3.75,1.82,1.8,2.75,3.71,3.22,4.9,4.3,14.56,8.6,29.13,12.9,43.69,.62,1.21,.49,2.67-.34,3.74-.8,1.04-2.13,1.54-3.43,1.3Z"/>
      <path class="cls-7" d="M829.04,555.8h-110.19c-2.14,0-3.87-1.73-3.87-3.87h0c0-2.14,1.73-3.87,3.87-3.87h110.19c2.14,0,3.87,1.73,3.87,3.87h0c0,2.14-1.73,3.87-3.87,3.87Z"/>
    </g>
    <rect class="cls-2" x="341.11" y="354.82" width="156" height="124" rx="3.15" ry="3.15"/>
    <path class="cls-12" d="M508.43,499.77h-181.54c-5.64,0-10.22-4.57-10.22-10.22h0c0-5.64,4.57-10.22,10.22-10.22h181.54c5.64,0,10.22,4.57,10.22,10.22h0c0,5.64-4.57,10.22-10.22,10.22Z"/>
  </g>
</svg>