<?xml version="1.0" encoding="UTF-8"?>
<svg id="Layer_1" data-name="Layer 1" xmlns="http://www.w3.org/2000/svg" viewBox="0 0 220.63 307.43">
  <path d="M220.6,107.32c.19,17.14-4.51,31.52-9.89,45.67-12.42,32.7-29.31,63.18-46.95,93.27-9.48,16.17-19.35,32.09-29.59,47.78-9.87,15.14-28.84,17.81-42.54,6.2-2.32-1.97-4.02-4.43-5.64-6.96-21.55-33.54-42.08-67.67-59.8-103.42-7.77-15.67-14.66-31.72-20.29-48.33C-5.36,108.25-.3,77.1,19.2,48.71,42.81,14.33,76.3-2.12,117.91,.22c50.29,2.82,92.5,41.51,101.12,91.28,1,5.79,1.74,11.61,1.57,15.82Zm-110.16-37.4c-19.31-.03-34.45,15.08-34.45,34.39,0,19.09,15.12,34.39,34.07,34.46,19.29,.07,34.59-15.07,34.64-34.26,.04-19.37-15-34.56-34.26-34.58Z"/>
</svg>